<svg xmlns="http://www.w3.org/2000/svg" viewBox="0 -40 13154 1777">
  <g transform="translate(0,-62) scale(19.2)">
    <path fill="#ECE7DD" d="M33 84 L35 76 L43 66 L37 73 L33 67 L27 71 L22 67 L21 58 L25 49 L28 42 L29 32 L33 23 L37 30 L41 31 L47 21 L50 29 L60 37 L68 48 L73 62 L74 84 Z"/>
    <rect x="26" y="86" width="52" height="6" fill="#ECE7DD"/>
  </g>
  <g transform="translate(2620,0)">
    <g transform="translate(40,1457) scale(1,-1)">
    <path transform="translate(0,0)" fill="#ECE7DD" d="M775 782 706 779Q716 818 703.5 847.0Q691 876 637 876Q586 876 534.5 837.0Q483 798 436.0 731.5Q389 665 351.0 582.5Q313 500 289.0 412.0Q265 324 259 242Q248 139 270.0 98.5Q292 58 330 58Q354 58 391.5 85.5Q429 113 471.0 166.0Q513 219 552.5 296.0Q592 373 620 472L830 1218Q865 1343 939.5 1400.0Q1014 1457 1136 1457Q1205 1457 1240.0 1431.5Q1275 1406 1275 1371Q1275 1341 1254.0 1320.5Q1233 1300 1195 1300Q1166 1300 1137.0 1312.5Q1108 1325 1079.0 1342.0Q1050 1359 1024.0 1371.0Q998 1383 976 1383Q949 1383 926.0 1359.0Q903 1335 902 1295Q902 1272 916.5 1251.0Q931 1230 950.0 1206.0Q969 1182 985.0 1150.5Q1001 1119 1005.5 1076.0Q1010 1033 994 974L779 210Q757 131 761.0 101.0Q765 71 794 71Q816 71 840.5 89.0Q865 107 903 154Q909 163 911.5 165.5Q914 168 917 167Q921 166 920.5 160.5Q920 155 915 145Q888 96 848.0 59.5Q808 23 757.0 2.5Q706 -18 646 -18Q581 -18 552.0 9.0Q523 36 523 83Q523 107 528.0 139.5Q533 172 546.5 222.5Q560 273 582 350L600 348Q550 232 487.0 150.0Q424 68 353.0 25.0Q282 -18 207 -18Q146 -18 100.0 11.5Q54 41 31.5 101.5Q9 162 17 254Q24 367 75.0 480.5Q126 594 209.0 688.0Q292 782 396.0 839.0Q500 896 613 896Q676 896 712.0 881.5Q748 867 763.0 841.0Q778 815 775 782Z"/>
    <path transform="translate(972,0)" fill="#ECE7DD" d="M780 230Q754 133 758.5 102.0Q763 71 790 71Q811 71 835.5 89.0Q860 107 898 154Q904 163 906.5 165.5Q909 168 912 167Q916 166 915.5 160.5Q915 155 910 145Q869 72 800.5 27.0Q732 -18 641 -18Q581 -18 554.5 8.0Q528 34 528 83Q528 101 532.5 130.0Q537 159 546.0 197.5Q555 236 568.0 283.0Q581 330 596 385L605 381Q558 257 502.5 167.5Q447 78 378.5 30.0Q310 -18 224 -18Q123 -18 70.0 54.5Q17 127 32 271Q39 369 77.0 461.0Q115 553 178.0 631.5Q241 710 323.0 769.5Q405 829 501.0 862.5Q597 896 701 896Q776 896 838.0 885.0Q900 874 936.5 860.5Q973 847 973 837Q973 828 964.0 823.5Q955 819 945.0 814.5Q935 810 931 798ZM271 242Q258 141 280.0 98.5Q302 56 338 56Q369 56 402.5 83.5Q436 111 471.5 167.0Q507 223 543.0 306.0Q579 389 616.0 500.0Q653 611 691 750Q707 809 704.0 841.5Q701 874 664 874Q610 874 556.5 837.0Q503 800 455.0 736.0Q407 672 369.0 590.5Q331 509 305.0 419.5Q279 330 271 242Z"/>
    <path transform="translate(1950,0)" fill="#ECE7DD" d="M72 690Q69 691 69.5 694.0Q70 697 74 704Q111 762 158.5 805.5Q206 849 260.0 872.5Q314 896 367 896Q422 896 447.5 871.5Q473 847 473 804Q473 767 462.0 726.0Q451 685 432.5 635.0Q414 585 392.0 521.5Q370 458 348 374L338 378Q375 493 421.5 587.5Q468 682 521.5 751.0Q575 820 633.0 858.0Q691 896 750 896Q810 896 838.0 851.0Q866 806 857 742Q851 695 831.0 662.0Q811 629 782.5 612.0Q754 595 719 595Q682 595 659.5 612.5Q637 630 637 666Q637 687 642.0 707.0Q647 727 647 744Q647 763 640.5 773.5Q634 784 619 784Q585 784 538.0 735.0Q491 686 441.0 588.5Q391 491 347 344Q328 277 315.0 229.5Q302 182 302 150Q302 127 313.5 114.0Q325 101 336.5 92.5Q348 84 348 74Q348 59 316.0 37.0Q284 15 230.5 -1.5Q177 -18 114 -18Q75 -18 58.0 -3.0Q41 12 40.5 40.5Q40 69 52 110L214 644Q240 727 236.0 757.0Q232 787 206 787Q185 787 158.0 769.5Q131 752 86 699Q82 694 78.5 692.0Q75 690 72 690Z"/>
    <path transform="translate(2718,0)" fill="#ECE7DD" d="M375 531Q388 579 405.0 642.0Q422 705 445.0 787.5Q468 870 498.0 976.5Q528 1083 566 1219Q586 1291 618.0 1334.0Q650 1377 689.5 1396.0Q729 1415 769 1415Q803 1415 834.5 1394.5Q866 1374 897.5 1346.5Q929 1319 962.5 1298.5Q996 1278 1033 1278Q1074 1278 1097.0 1299.5Q1120 1321 1120 1352Q1120 1397 1070.0 1427.0Q1020 1457 923 1457Q740 1457 608.0 1397.5Q476 1338 389.5 1221.0Q303 1104 256 931L23 80Q14 44 15.0 22.5Q16 1 34.0 -8.5Q52 -18 92 -18Q158 -18 203.5 -8.5Q249 1 273.0 18.5Q297 36 297 60Q297 76 289.0 88.5Q281 101 281 120Q281 143 285.0 174.0Q289 205 300.5 257.0Q312 309 335 393Q361 494 406.5 574.5Q452 655 506.5 713.0Q561 771 614.5 801.0Q668 831 710 829Q748 827 765.5 797.0Q783 767 775 714Q763 631 710.5 561.5Q658 492 559.0 441.5Q460 391 307 363L310 346Q551 388 698.5 444.0Q846 500 917.0 568.0Q988 636 998 715Q1011 803 964.0 850.0Q917 897 833 900Q764 902 694.0 874.0Q624 846 559.5 794.0Q495 742 443.5 670.5Q392 599 360 514ZM460 389 526 129Q545 50 583.0 16.0Q621 -18 679 -18Q733 -18 777.0 0.0Q821 18 858.5 58.0Q896 98 928 165Q930 170 929.5 173.0Q929 176 926 177Q924 179 921.0 177.5Q918 176 916 173Q887 129 864.5 111.5Q842 94 819 94Q794 94 776.5 114.0Q759 134 745 180L660 450Z"/>
    <path transform="translate(4140,0)" fill="#ECE7DD" d="M319 335Q354 446 400.0 529.0Q446 612 494.5 667.0Q543 722 587.0 749.0Q631 776 664 776Q706 776 716.0 742.5Q726 709 696 614L561 178Q541 112 542.5 68.5Q544 25 572.5 3.5Q601 -18 659 -18Q760 -18 829.5 27.0Q899 72 940 145Q945 155 945.5 160.5Q946 166 942 167Q939 168 936.5 165.5Q934 163 927 154Q890 107 864.5 89.0Q839 71 818 71Q794 71 786.0 100.0Q778 129 806 218L941 657Q964 730 962.5 783.5Q961 837 930.5 866.5Q900 896 836 896Q765 896 681.0 855.5Q597 815 512.0 723.0Q427 631 352 475L357 473L567 1224Q587 1296 619.0 1337.5Q651 1379 690.0 1397.0Q729 1415 767 1415Q802 1415 834.0 1394.5Q866 1374 897.5 1346.5Q929 1319 962.0 1298.5Q995 1278 1033 1278Q1073 1278 1096.0 1299.5Q1119 1321 1119 1352Q1119 1397 1069.0 1427.0Q1019 1457 922 1457Q735 1457 602.5 1396.0Q470 1335 385.0 1214.5Q300 1094 252 918L27 96Q15 52 15.0 27.0Q15 2 32.5 -8.0Q50 -18 92 -18Q189 -18 242.5 3.5Q296 25 296 60Q296 76 288.0 88.0Q280 100 280 119Q280 138 282.5 169.0Q285 200 293.5 242.0Q302 284 319 335Z"/>
    <path transform="translate(5153,0)" fill="#ECE7DD" d="M568 900Q680 898 758.5 846.0Q837 794 873.5 699.5Q910 605 893 477Q880 374 838.0 284.5Q796 195 727.5 127.0Q659 59 568.5 20.5Q478 -18 369 -18Q265 -18 184.0 31.0Q103 80 63.5 173.0Q24 266 40 397Q55 509 100.0 601.5Q145 694 215.0 762.0Q285 830 375.0 866.0Q465 902 568 900ZM370 7Q407 7 446.5 48.5Q486 90 523.0 158.5Q560 227 590.5 311.0Q621 395 641.5 482.0Q662 569 668 646Q679 728 669.0 777.5Q659 827 634.5 850.0Q610 873 576 875Q537 876 496.0 836.0Q455 796 416.5 727.5Q378 659 346.0 574.0Q314 489 292.5 399.5Q271 310 264 229Q254 144 265.5 95.5Q277 47 305.0 27.0Q333 7 370 7Z"/>
    <path transform="translate(6087,0)" fill="#ECE7DD" d="M72 690Q69 691 69.5 694.0Q70 697 74 704Q111 762 158.5 805.5Q206 849 260.0 872.5Q314 896 367 896Q422 896 447.5 871.5Q473 847 473 804Q473 767 462.0 726.0Q451 685 432.5 635.0Q414 585 392.0 521.5Q370 458 348 374L338 378Q375 493 421.5 587.5Q468 682 521.5 751.0Q575 820 633.0 858.0Q691 896 750 896Q810 896 838.0 851.0Q866 806 857 742Q851 695 831.0 662.0Q811 629 782.5 612.0Q754 595 719 595Q682 595 659.5 612.5Q637 630 637 666Q637 687 642.0 707.0Q647 727 647 744Q647 763 640.5 773.5Q634 784 619 784Q585 784 538.0 735.0Q491 686 441.0 588.5Q391 491 347 344Q328 277 315.0 229.5Q302 182 302 150Q302 127 313.5 114.0Q325 101 336.5 92.5Q348 84 348 74Q348 59 316.0 37.0Q284 15 230.5 -1.5Q177 -18 114 -18Q75 -18 58.0 -3.0Q41 12 40.5 40.5Q40 69 52 110L214 644Q240 727 236.0 757.0Q232 787 206 787Q185 787 158.0 769.5Q131 752 86 699Q82 694 78.5 692.0Q75 690 72 690Z"/>
    <path transform="translate(6855,0)" fill="#ECE7DD" d="M301 2Q359 2 398.0 41.0Q437 80 438 139Q438 172 425.0 202.0Q412 232 381.0 267.5Q350 303 298 350Q235 405 195.5 448.5Q156 492 139.0 533.5Q122 575 125 623Q129 697 176.0 760.0Q223 823 305.5 862.5Q388 902 500 902Q594 902 656.5 878.0Q719 854 751.0 816.5Q783 779 784 738Q785 697 764.5 673.0Q744 649 712 649Q674 649 647.5 676.5Q621 704 603 776Q586 834 556.5 858.0Q527 882 485 882Q423 882 382.5 841.0Q342 800 341 732Q341 693 354.0 658.5Q367 624 405.0 582.0Q443 540 516 477Q575 426 609.5 386.0Q644 346 657.5 308.0Q671 270 665 224Q656 154 606.5 99.5Q557 45 475.5 13.5Q394 -18 289 -18Q192 -18 125.5 10.0Q59 38 26.0 82.0Q-7 126 -7 174Q-7 210 10.5 234.5Q28 259 61 259Q102 259 126.5 229.0Q151 199 170 128Q194 59 225.0 30.5Q256 2 301 2Z"/>
    <path transform="translate(7628,0)" fill="#ECE7DD" d="M166 421Q166 421 202.5 433.5Q239 446 296.0 465.5Q353 485 416.5 507.0Q480 529 534.5 547.5Q589 566 620 576L597 556Q609 584 617.0 627.0Q625 670 626 729Q626 796 606.0 837.5Q586 879 550 879Q510 879 470.5 848.0Q431 817 395.5 758.0Q360 699 333.0 616.0Q306 533 291 429Q270 274 319.0 190.5Q368 107 480 107Q536 107 586.5 130.0Q637 153 680.0 201.0Q723 249 757 321Q761 328 764.0 330.5Q767 333 771 331Q775 331 776.0 326.0Q777 321 773 314Q730 208 664.5 133.5Q599 59 512.5 20.5Q426 -18 321 -18Q222 -18 153.5 26.0Q85 70 55.0 156.5Q25 243 41 369Q55 479 100.5 575.5Q146 672 216.0 745.0Q286 818 373.5 860.0Q461 902 558 902Q643 902 698.5 868.0Q754 834 780.0 779.5Q806 725 804 662Q803 650 809.0 643.5Q815 637 831 637Q838 637 840.5 635.0Q843 633 843 630Q844 627 842.0 624.5Q840 622 834 620Q820 616 766.5 599.0Q713 582 638.0 557.0Q563 532 482.0 505.5Q401 479 330.5 455.5Q260 432 216.0 417.0Q172 402 172 402Z"/>
    <path transform="translate(8942,0)" fill="#C6A15B" d="M780 230Q754 133 758.5 102.0Q763 71 790 71Q811 71 835.5 89.0Q860 107 898 154Q904 163 906.5 165.5Q909 168 912 167Q916 166 915.5 160.5Q915 155 910 145Q869 72 800.5 27.0Q732 -18 641 -18Q581 -18 554.5 8.0Q528 34 528 83Q528 101 532.5 130.0Q537 159 546.0 197.5Q555 236 568.0 283.0Q581 330 596 385L605 381Q558 257 502.5 167.5Q447 78 378.5 30.0Q310 -18 224 -18Q123 -18 70.0 54.5Q17 127 32 271Q39 369 77.0 461.0Q115 553 178.0 631.5Q241 710 323.0 769.5Q405 829 501.0 862.5Q597 896 701 896Q776 896 838.0 885.0Q900 874 936.5 860.5Q973 847 973 837Q973 828 964.0 823.5Q955 819 945.0 814.5Q935 810 931 798ZM271 242Q258 141 280.0 98.5Q302 56 338 56Q369 56 402.5 83.5Q436 111 471.5 167.0Q507 223 543.0 306.0Q579 389 616.0 500.0Q653 611 691 750Q707 809 704.0 841.5Q701 874 664 874Q610 874 556.5 837.0Q503 800 455.0 736.0Q407 672 369.0 590.5Q331 509 305.0 419.5Q279 330 271 242Z"/>
    <path transform="translate(9920,0)" fill="#C6A15B" d="M331 71Q306 71 298.5 101.0Q291 131 318 218L469 686Q492 758 486.0 804.0Q480 850 449.5 873.0Q419 896 369 896Q288 896 213.5 844.0Q139 792 83 704Q80 698 79.0 694.5Q78 691 81 690Q85 690 88.0 692.0Q91 694 96 699Q141 752 168.0 769.5Q195 787 215 787Q242 787 246.0 756.0Q250 725 223 643L73 178Q52 112 54.0 68.0Q56 24 84.5 3.0Q113 -18 171 -18Q271 -18 341.5 27.0Q412 72 452 145Q457 155 457.5 160.5Q458 166 454 167Q451 168 448.5 165.5Q446 163 440 154Q403 107 377.5 89.0Q352 71 331 71Z"/>
    <path fill="#C6A15B" d="M10370 1293 L10498 1165 L10370 1037 L10242 1165 Z"/>
    <rect x="8892" y="-245" width="1552" height="95" fill="#C6A15B"/>
  </g>
  </g>
</svg>
